<?xml version="1.0" encoding="utf-8"?>
<!-- Generator: Adobe Illustrator 15.0.0, SVG Export Plug-In  -->
<!DOCTYPE svg PUBLIC "-//W3C//DTD SVG 1.1//EN" "http://www.w3.org/Graphics/SVG/1.1/DTD/svg11.dtd" [
	<!ENTITY ns_flows "http://ns.adobe.com/Flows/1.0/">
]>
<svg version="1.1"
	 xmlns="http://www.w3.org/2000/svg" xmlns:xlink="http://www.w3.org/1999/xlink" xmlns:a="http://ns.adobe.com/AdobeSVGViewerExtensions/3.0/"
	 x="0px" y="0px" width="600px" height="600px" viewBox="-11.214 -8.214 600 600"
	 overflow="visible" enable-background="new -11.214 -8.214 600 600" xml:space="preserve">
<defs>
</defs>
<circle stroke="#000000" stroke-miterlimit="10" cx="290.643" cy="290.643" r="290.143"/>
<path fill="#FFFFFF" d="M105.685,342.319c0,0,24.496-76.09,36.853-96.901c0,0-63.517,32.516-65.468,36.418c0,0-4.119,1.952-1.3,8.13
	c0,0-9.755-3.794-9.755-27.64c0,0,7.154-7.804,42.272-24.713c0,0,0.434,2.818-4.01,6.07c0,0-16.622,10.294,10.506-3.675
	c0.146-0.075,0.293-0.151,0.441-0.228c27.748-14.308,85.627-31.866,96.467-32.517c0,0,16.692-4.119,27.748-2.168
	c0,0,16.91,9.322,10.839,14.092c0,0-30.999-1.734-44.615,2.485c0,0-10.101,2.422-39.278,13.773c0,0,1.951,3.902-3.035,8.888
	c0,0-14.92,26.451-16.654,31.871c0,0,38.983-15.403,49.822-11.935c0,0,12.574,7.154,6.937,10.405c0,0-35.334,3.903-65.034,20.377
	c0,0-16.692,44.874-20.376,59.397c0,0-4.986,5.854-9.755-3.468C108.288,350.983,106.116,348.609,105.685,342.319z"/>
<path fill="#FFFFFF" d="M196.006,304.603c0,0,1.015,9.107,8.032,12.346c0,0,23.209-23.749,40.481-63.69
	c0,0-16.732-7.016,2.698-28.066c0,0,26.987-24.289,12.954,16.731c0,0-5.943,7.557,4.045,3.239c0,0,19.58-5.397,13.975,12.414
	c0,0-24.345,36.703-24.69,48.038c0,0,25.021-20.511,37.436-46.418c0,0,8.636-11.334,10.255-20.51c0,0,10.254-3.238,10.254,10.795
	c0,0-8.096,28.606-18.891,44.259c0,0,30.766-57.753,39.941-58.832c0,0,6.569-6.182,19.379-1.22c2.33,0.902,4.866,2.174,7.609,3.919
	l3.237,1.62c0,0,12.955-17.812,16.193-24.829c0,0,22.129-35.623,27.525-36.163c0,0,9.177,0-7.556,23.749
	c0,0-34.544,63.15-33.465,65.309c0,0-11.873,31.845,12.415,2.699c0,0,34.004-34.543,11.334-4.858c0,0-19.971,26.987-30.766,29.146
	c0,0-14.032,1.079-4.856-26.987c0,0-26.986,34.543-33.465,32.385c0,0-20.51-5.938,1.619-35.624c0,0,12.414-22.669,24.828-27.527
	c0,0-12.413-2.698-23.748,15.653l-33.465,57.212c0,0-14.054,4.627-11.126-14.573c0,0,13.286-12.953,15.445-23.748
	c0,0-30.615,43.719-40.135,45.878c0,0-19.238,10.795-8.983-27.527c0,0,8.637-21.588,19.971-35.623c0,0-6.865-1.62-10.988,2.699
	c0.668-1.201-43.97,77.368-50.43,73.944c0,0-26.868-14.868-0.96-48.872L196.006,304.603z"/>
<path fill="#FFFFFF" d="M306.135,211.657c0,0-6.229,10.882-3.924,15.2c0,0,13.64,1.079,20.656-11.334
	C322.868,215.522,307.704,208.903,306.135,211.657z"/>
<path fill="#FFFFFF" d="M456.962,240.197c-9.715,10.687-28.795,27.645-28.795,27.645c-5.34,2.466-36.897,28.23-36.897,28.23
	l-7.363,8.548c-18.535,30.046,0,24.29,0,24.29c12.955-8.097,34.915-69.088,34.915-69.088c8.467-13.494-3.069-3.238-3.069-3.238
	c-11.873,19.971-19.431,22.669-19.431,22.669c-10.255,1.08-9.175-12.415-9.175-12.415c31.845-60.99,43.719-60.451,43.719-60.451
	c29.146-1.08,17.272,14.573,17.272,14.573s-5.938-10.254-19.971,3.239c0,0-27.434,30.83-22.13,35.083c0,0,2.697,5.937,27.526-34.544
	c0,0,5.398-8.636,12.955,1.079c0,0-12.415,21.59-12.415,24.829c0,0-12.415,24.829-15.112,35.083c0,0-20.908,54.985-43.181,52.895
	c0,0-18.891-7.556-0.142-33.464c0,0,18.822-22.06,31.356-29.794c0,0,44.235-33.627,49.937-46.582"/>
<path fill="#FFFFFF" d="M463.764,234.755c0,0,19.625-16.904,29.534-26.619c0,0,10.104-28-11.854-19.387
	c0,0-17.098,11.887-23.996,30.345c0,0-9.036,25.552-2.428,41.389c0,0,6.994,19.518,31.478-26.092c0,0,14.573-23.457,25.648-23.457
	c0,0-7.732-6.854-34.879,24.58c-5.538,6.412-16.63,27.269-14.573,7.481c0,0,3.399-26.814,7.675-32.838
	c0,0,19.432-26.117,17.779-4.857c0,0-13.384,11.084-22.832,19.935L463.764,234.755z"/>
<path fill="#FFFFFF" d="M314.315,385.734c0,0,19.625-16.906,29.534-26.62c0,0,10.104-27.999-11.853-19.388
	c0,0-17.1,11.887-23.997,30.346c0,0-9.036,25.553-2.428,41.389c0,0,6.994,19.52,31.478-26.091c0,0,14.573-23.457,25.649-23.457
	c0,0-7.732-6.854-34.879,24.579c-5.538,6.412-16.632,27.27-14.574,7.482c0,0,3.398-26.815,7.676-32.839
	c0,0,19.431-26.117,17.778-4.858c0,0-13.383,11.084-22.831,19.935L314.315,385.734z"/>
<path fill="#FFFFFF" d="M188.429,455.434c0,0,34.991-135.33,56.914-118.044l12.227,7.166c0,0-20.026,65.755-11.911,49.207
	c0,0,40.579-88.413,51.961-71.551l12.226,9.696c0,0-57.546,116.871-25.717,82.724c0,0,15.415-22.642,21.739-32.284
	c1.184-1.808,5.453,5.724-0.027,12.258c-2.714,3.234-8.062,12.303-9.063,14.124c-16.231,29.512-25.096,28.396-30.566,26.138
	c0,0-2.318-2.898-3.741-11.594c0,0-3.216-18.852,15.335-56.372c0,0,7.166-22.345-7.167-2.951c0,0-20.411,38.16-23.293,41.527
	c-1.264,1.475-15.746,0.947-15.599-2.966c0.183-4.85,5.271-14.65,6.535-19.696c0,0,5.375-17.086,7.062-23.411
	c0,0,1.265-11.054-3.373-0.515c0,0-24.452,40.894-43.002,102.869C198.967,461.759,196.018,472.297,188.429,455.434z"/>
</svg>
